<svg width="162" height="37" viewBox="0 0 162 37" fill="none" xmlns="http://www.w3.org/2000/svg">
<path d="M29.3904 16.772L27.7664 13.132C27.5984 12.768 27.2904 11.928 26.7864 11.928C25.9184 11.928 26.1984 15.624 26.1984 16.548C26.1984 19.544 27.9904 18.144 27.9904 19.656C27.9904 21.252 24.9944 21.308 23.9024 21.308C22.9224 21.308 20.3744 21.224 20.3744 19.768C20.3744 18.172 22.0544 19.488 22.2784 17.192C22.5024 14.84 22.7544 12.236 22.7544 8.176C22.7544 6.496 22.6424 5.628 22.3344 4.984C22.0544 4.396 20.4584 4.2 20.4584 3.052C20.4584 1.456 23.0624 1.064 25.3024 1.064C28.5784 1.064 28.5224 1.624 29.3624 3.052C30.3424 4.704 32.0784 9.296 33.3104 9.576C34.1784 9.772 35.3264 6.384 36.3344 4.536C37.7624 1.904 37.7904 1.064 41.4864 1.064C42.7184 1.064 45.5184 1.148 45.5184 2.912C45.5184 4.032 44.2584 4.256 43.9784 5.208C43.7544 5.992 43.5584 9.296 43.5584 10.556C43.5584 10.976 43.7264 14.056 43.8384 16.66C43.9224 18.704 45.6024 18.256 45.6024 19.516C45.6024 21.392 41.7664 21.308 40.5344 21.308C39.3864 21.308 35.5504 21.42 35.5504 19.628C35.5504 18.648 36.8104 18.48 37.0064 17.584C37.1184 17.108 37.6784 12.292 36.6984 12.292C35.8304 12.292 34.9344 14.756 34.2624 16.184C33.6464 17.472 32.6384 20.664 31.7424 20.552C31.2944 20.496 31.0704 20.552 29.3904 16.772ZM57.1583 21.392C51.2503 21.392 46.6583 17.08 46.6583 11.116C46.6583 5.18 51.3903 0.979999 57.4943 0.979999C65.2223 0.979999 68.1903 7.784 68.1903 11.396C68.1903 17.416 62.8703 21.392 57.1583 21.392ZM60.9943 14.224C60.9943 11.676 59.4823 5.152 56.2063 5.152C54.6383 5.152 53.8543 6.776 53.8543 8.148C53.8543 10.528 55.5343 17.22 58.5583 17.22C60.2663 17.22 60.9943 15.736 60.9943 14.224ZM78.3924 12.908H80.4924C80.7724 12.908 81.6124 12.964 81.6124 12.544C81.6124 12.124 80.8004 10.668 80.5764 10.276C80.3244 9.828 79.8484 8.792 79.2324 8.792C78.5604 8.792 78.0844 10.472 77.9724 10.78C77.8604 11.088 77.3844 12.18 77.3844 12.516C77.3844 12.992 78.0844 12.908 78.3924 12.908ZM72.8484 14.728L74.6124 10.892C75.4804 8.96 76.6284 6.496 76.6284 4.284C76.6284 2.352 77.5244 0.895998 80.0164 0.895998C82.4524 0.895998 83.9924 3.388 85.0844 5.236C85.5604 6.048 89.7884 14.616 90.7964 16.912C91.7204 19.04 93.2324 17.752 93.2324 19.348C93.2324 21.392 89.2564 21.308 87.8564 21.308C83.8524 21.308 81.4444 21.28 81.4444 19.544C81.4444 18.2 83.1524 18.704 83.1524 17.724C83.1524 16.464 82.4524 16.352 77.9444 16.352C76.4884 16.352 75.6204 16.408 75.6204 17.78C75.6204 18.872 77.4124 18.144 77.4124 19.6C77.4124 21.28 74.3884 21.308 73.2684 21.308C69.2644 21.308 68.9004 20.552 68.9004 19.656C68.9004 18.34 70.4124 18.732 71.2244 17.724C71.8404 16.968 72.4284 15.624 72.8484 14.728ZM101.972 2.296L108.608 8.12C108.944 8.4 109.84 9.212 110.344 9.212C111.044 9.212 111.072 8.064 111.072 7.588C111.072 6.888 111.044 5.684 110.82 5.04C110.428 3.864 108.944 4.284 108.944 2.772C108.944 0.979999 111.8 1.064 112.976 1.064C114.208 1.064 117.26 0.924 117.26 2.856C117.26 4.452 115.776 3.864 115.3 5.152C114.936 6.16 114.936 7.896 114.936 8.96V16.212C114.936 17.472 115.104 21.308 113.228 21.308C112.668 21.308 112.192 20.972 111.772 20.608L103.12 12.852C102.728 12.488 102 11.816 101.412 11.816C100.544 11.816 100.516 13.636 100.516 14.224C100.516 15.008 100.544 16.044 100.712 16.772C101.132 18.564 102.616 17.892 102.616 19.264C102.616 21.14 99.7323 21.308 98.4163 21.308C97.1283 21.308 94.2443 21.14 94.2443 19.32C94.2443 17.836 95.8683 18.424 96.1483 16.632C96.3443 15.428 96.4003 13.664 96.4003 12.404C96.4003 10.388 96.4003 8.344 96.0923 6.328C95.6443 3.528 93.6283 4.62 93.6283 2.94C93.6283 0.951999 97.4083 1.064 98.6683 1.064C100.404 1.064 100.712 1.176 101.972 2.296ZM127.174 12.908H129.274C129.554 12.908 130.394 12.964 130.394 12.544C130.394 12.124 129.582 10.668 129.358 10.276C129.106 9.828 128.63 8.792 128.014 8.792C127.342 8.792 126.866 10.472 126.754 10.78C126.642 11.088 126.166 12.18 126.166 12.516C126.166 12.992 126.866 12.908 127.174 12.908ZM121.63 14.728L123.394 10.892C124.262 8.96 125.41 6.496 125.41 4.284C125.41 2.352 126.306 0.895998 128.798 0.895998C131.234 0.895998 132.774 3.388 133.866 5.236C134.342 6.048 138.57 14.616 139.578 16.912C140.502 19.04 142.014 17.752 142.014 19.348C142.014 21.392 138.038 21.308 136.638 21.308C132.634 21.308 130.226 21.28 130.226 19.544C130.226 18.2 131.934 18.704 131.934 17.724C131.934 16.464 131.234 16.352 126.726 16.352C125.27 16.352 124.402 16.408 124.402 17.78C124.402 18.872 126.194 18.144 126.194 19.6C126.194 21.28 123.17 21.308 122.05 21.308C118.046 21.308 117.682 20.552 117.682 19.656C117.682 18.34 119.194 18.732 120.006 17.724C120.622 16.968 121.21 15.624 121.63 14.728Z" fill="#0074BC"/>
<path d="M6.25477 27.734C6.25477 26.915 5.83877 26.239 4.96777 26.239C4.46077 26.239 4.47377 26.395 4.47377 26.655V28.605C4.47377 28.878 4.35677 29.177 5.05877 29.177C5.91677 29.177 6.25477 28.527 6.25477 27.734ZM1.48377 31.946V26.863C1.48377 25.888 0.274773 26.317 0.274773 25.498C0.274773 24.978 0.846773 24.861 1.24977 24.861C1.57477 24.861 1.88677 24.887 2.21177 24.887C4.09677 24.887 5.24077 24.705 5.78677 24.705C7.55477 24.705 9.25777 25.732 9.25777 27.682C9.25777 29.619 7.61977 30.659 5.81277 30.659C5.42277 30.659 5.03277 30.594 4.68177 30.594C4.52577 30.594 4.47377 30.659 4.47377 30.802V31.556C4.51277 33.181 5.46177 32.505 5.46177 33.259C5.46177 34.104 3.58977 34.143 3.00477 34.143C2.45877 34.143 0.534773 34.13 0.534773 33.285C0.534773 32.57 1.48377 33.012 1.48377 31.946ZM15.6895 31.01H12.8685C12.7255 31.01 12.5175 30.971 12.5175 31.192C12.5175 31.842 13.3625 32.388 13.9735 32.388C14.9485 32.388 15.4295 31.803 15.7025 31.803C15.9755 31.803 16.2095 32.206 16.2095 32.453C16.2095 33.454 14.3765 34.182 13.2065 34.182C10.8665 34.182 9.65752 32.492 9.65752 30.815C9.65752 28.813 11.3605 27.357 13.3105 27.357C15.5205 27.357 16.4955 29.06 16.4955 30.035C16.4955 30.893 16.1055 31.01 15.6895 31.01ZM13.2325 29.762C13.5835 29.762 13.9995 29.84 13.9995 29.372C13.9995 28.904 13.7135 28.54 13.2325 28.54C12.8035 28.54 12.4525 28.982 12.4525 29.398C12.4525 29.866 12.8945 29.762 13.2325 29.762ZM17.6869 30.841V30.061C17.6869 28.787 16.8809 29.502 16.8809 28.709C16.8809 27.682 19.9229 27.396 20.0399 27.396C20.5339 27.396 20.5469 27.526 20.5989 27.968C20.6119 28.124 20.5989 28.423 20.8199 28.423C21.1319 28.423 21.3269 27.396 22.4449 27.396C23.3159 27.396 23.8879 28.046 23.8879 28.904C23.8879 29.775 23.1469 30.464 22.2889 30.464C21.4439 30.464 21.2099 29.723 20.8719 29.723C20.5079 29.723 20.5729 30.594 20.5729 30.828C20.5729 31.218 20.6119 31.764 20.6769 32.258C20.7549 32.83 21.7429 32.479 21.7429 33.259C21.7429 34.078 20.5989 34.143 19.1689 34.143C18.5709 34.143 16.8029 34.169 16.8029 33.272C16.8029 32.726 17.4009 32.726 17.5439 32.271C17.6479 31.946 17.6869 31.205 17.6869 30.841ZM26.9497 27.357C27.2097 27.357 27.4827 27.383 27.7297 27.435C27.9637 27.474 28.1717 27.526 28.2627 27.526C28.3927 27.526 28.4967 27.487 28.6137 27.435C28.7307 27.396 28.8477 27.357 28.9647 27.357C29.5627 27.357 30.1607 28.553 30.1607 29.086C30.1607 29.437 29.8617 29.697 29.5237 29.697C28.7827 29.697 28.3667 28.67 27.7947 28.67C27.5607 28.67 27.3267 28.865 27.3267 29.112C27.3267 29.944 30.1867 30.1 30.1867 32.115C30.1867 33.337 29.0037 34.182 27.6517 34.182C27.3917 34.182 27.0147 34.143 26.6897 34.091C26.3647 34.052 26.0787 34.013 26.0007 34.013C25.9097 34.013 25.8317 34.026 25.7407 34.039C25.6627 34.052 25.5847 34.065 25.4937 34.065C25.2337 34.065 25.1037 34.026 24.9217 33.818C24.5967 33.454 24.2717 32.713 24.2717 32.219C24.2717 31.881 24.3887 31.608 24.7657 31.608C25.3377 31.608 25.8577 32.895 26.5857 32.895C26.8457 32.895 27.0927 32.765 27.0927 32.479C27.0927 31.712 24.5447 31.621 24.5447 29.476C24.5447 28.176 25.6107 27.357 26.9497 27.357ZM34.2814 34.182C32.3574 34.182 30.7194 33.051 30.7194 30.997C30.7194 28.67 32.7604 27.357 34.9054 27.357C37.1804 27.357 38.4804 29.138 38.4804 30.75C38.4804 32.882 36.1924 34.182 34.2814 34.182ZM35.4904 31.738C35.4904 31.153 35.2304 28.891 34.3464 28.891C33.9174 28.891 33.6834 29.294 33.7094 29.671C33.7614 30.49 33.9954 32.492 34.8924 32.544C35.3864 32.57 35.4904 32.154 35.4904 31.738ZM42.5859 30.828V31.829C42.5859 33.09 43.0279 32.869 43.0279 33.363C43.0279 34.169 41.2989 34.143 40.7659 34.143C40.2459 34.143 38.9199 34.143 38.9199 33.363C38.9199 32.739 39.5179 33.298 39.5569 32.024L39.6089 30.074C39.6349 29.112 38.8419 29.424 38.8419 28.735C38.8419 28.046 41.8319 27.396 42.0919 27.396C42.3779 27.396 42.5599 27.643 42.5599 27.903C42.5599 27.981 42.5469 28.059 42.5469 28.137C42.5469 28.293 42.6119 28.475 42.8069 28.475C43.0149 28.475 43.1319 28.202 43.3919 27.929C43.6519 27.669 44.0419 27.396 44.7829 27.396C47.4739 27.396 47.0189 30.035 47.1489 32.011C47.2139 33.038 47.7469 32.804 47.7469 33.363C47.7469 33.597 47.7989 34.143 45.3549 34.143C44.8869 34.143 43.6389 34.169 43.6389 33.441C43.6389 32.973 44.0679 33.194 44.1329 32.349C44.1979 31.426 44.5619 29.346 43.3399 29.346C42.5079 29.346 42.5859 30.243 42.5859 30.828ZM51.5049 31.205C51.0629 31.205 50.7639 31.621 50.7639 32.037C50.7639 32.375 50.9459 32.739 51.3229 32.739C51.8169 32.739 51.8559 32.206 51.8559 31.816C51.8559 31.53 51.8689 31.205 51.5049 31.205ZM54.6639 29.593V30.893C54.6639 33.181 55.4439 31.933 55.4439 32.635C55.4439 33.376 54.4299 34.182 53.4809 34.182C52.4539 34.182 52.4279 33.519 52.1029 33.519C51.9469 33.519 51.7779 33.688 51.4919 33.844C51.2059 34.013 50.8159 34.182 50.2179 34.182C49.1389 34.182 48.0599 33.61 48.0599 32.323C48.0599 31.4 48.9439 30.256 51.2319 30.256C51.6349 30.256 51.8169 30.282 51.8169 29.814C51.8169 29.385 51.8039 28.488 51.2059 28.488C50.4259 28.488 50.3479 29.892 49.1909 29.892C48.7749 29.892 48.4629 29.593 48.4629 29.177C48.4629 28.072 50.6599 27.357 51.8949 27.357C52.6359 27.357 54.6639 27.643 54.6639 29.593ZM59.6911 29.151V31.673C59.6911 31.907 59.6781 32.336 59.7431 32.544C59.8861 33.012 60.4711 32.791 60.4711 33.337C60.4711 34.208 58.8851 34.143 58.3261 34.143C57.7411 34.143 55.9211 34.208 55.9211 33.285C55.9211 32.83 56.4801 32.999 56.6361 32.518C56.8051 31.985 56.8051 30.36 56.8051 29.723C56.8051 29.216 56.8311 28.241 56.7141 27.656C56.5191 26.694 55.7521 27.032 55.7521 26.291C55.7521 25.16 59.1321 24.887 59.3141 24.887C59.7561 24.887 59.8601 25.173 59.8601 25.563C59.8601 25.862 59.6911 27.292 59.6911 29.151ZM67.9879 24.887H71.1859C71.7449 24.887 72.0049 24.835 72.1999 24.796C72.3819 24.744 72.4859 24.705 72.7329 24.705C73.2399 24.705 74.2929 25.706 74.2929 27.11C74.2929 27.76 73.9549 28.189 73.2919 28.189C72.1609 28.189 72.1739 26.655 71.5109 26.655C71.0039 26.655 71.0559 27.357 71.0559 27.461V31.452C71.0559 32.999 72.2519 32.258 72.2519 33.168C72.2519 33.571 72.0049 34.143 69.5739 34.143C68.9109 34.143 66.4799 34.169 66.4799 33.168C66.4799 32.479 67.2859 32.752 67.5459 32.258C67.6759 31.985 67.7279 31.205 67.7409 30.88L67.8449 28.007C67.8969 26.642 67.6239 26.655 67.4419 26.655C66.8569 26.655 66.5709 28.189 65.5179 28.189C65.0109 28.189 64.7119 27.721 64.7119 27.253C64.7119 26.148 65.6479 24.705 66.3889 24.705C66.4799 24.705 66.6229 24.744 66.8699 24.796C67.1169 24.835 67.4679 24.887 67.9879 24.887ZM75.3109 30.841V30.061C75.3109 28.787 74.5049 29.502 74.5049 28.709C74.5049 27.682 77.5469 27.396 77.6639 27.396C78.1579 27.396 78.1709 27.526 78.2229 27.968C78.2359 28.124 78.2229 28.423 78.4439 28.423C78.7559 28.423 78.9509 27.396 80.0689 27.396C80.9399 27.396 81.5119 28.046 81.5119 28.904C81.5119 29.775 80.7709 30.464 79.9129 30.464C79.0679 30.464 78.8339 29.723 78.4959 29.723C78.1319 29.723 78.1969 30.594 78.1969 30.828C78.1969 31.218 78.2359 31.764 78.3009 32.258C78.3789 32.83 79.3669 32.479 79.3669 33.259C79.3669 34.078 78.2229 34.143 76.7929 34.143C76.1949 34.143 74.4269 34.169 74.4269 33.272C74.4269 32.726 75.0249 32.726 75.1679 32.271C75.2719 31.946 75.3109 31.205 75.3109 30.841ZM85.2237 31.205C84.7817 31.205 84.4827 31.621 84.4827 32.037C84.4827 32.375 84.6647 32.739 85.0417 32.739C85.5357 32.739 85.5747 32.206 85.5747 31.816C85.5747 31.53 85.5877 31.205 85.2237 31.205ZM88.3827 29.593V30.893C88.3827 33.181 89.1627 31.933 89.1627 32.635C89.1627 33.376 88.1487 34.182 87.1997 34.182C86.1727 34.182 86.1467 33.519 85.8217 33.519C85.6657 33.519 85.4967 33.688 85.2107 33.844C84.9247 34.013 84.5347 34.182 83.9367 34.182C82.8577 34.182 81.7787 33.61 81.7787 32.323C81.7787 31.4 82.6627 30.256 84.9507 30.256C85.3537 30.256 85.5357 30.282 85.5357 29.814C85.5357 29.385 85.5227 28.488 84.9247 28.488C84.1447 28.488 84.0667 29.892 82.9097 29.892C82.4937 29.892 82.1817 29.593 82.1817 29.177C82.1817 28.072 84.3787 27.357 85.6137 27.357C86.3547 27.357 88.3827 27.643 88.3827 29.593ZM93.3058 27.968V31.595C93.3058 33.129 94.0728 32.57 94.0728 33.259C94.0728 34.143 92.4218 34.143 91.8368 34.143C89.6008 34.143 89.5098 33.636 89.5098 33.324C89.5098 32.856 90.0428 32.83 90.1988 32.427C90.3678 31.972 90.3938 30.087 90.2508 29.606C90.1338 29.151 89.4708 29.294 89.4708 28.709C89.4708 27.786 92.7728 27.396 92.9028 27.396C93.2928 27.396 93.3058 27.695 93.3058 27.968ZM93.2408 25.706C93.2408 26.72 91.4728 26.98 90.7318 26.98C90.1858 26.98 89.6008 26.733 89.6008 26.096C89.6008 25.238 91.3168 24.887 91.9798 24.887C92.4998 24.887 93.2408 25.056 93.2408 25.706ZM98.0898 30.828V31.829C98.0898 33.09 98.5318 32.869 98.5318 33.363C98.5318 34.169 96.8028 34.143 96.2698 34.143C95.7498 34.143 94.4238 34.143 94.4238 33.363C94.4238 32.739 95.0218 33.298 95.0608 32.024L95.1128 30.074C95.1388 29.112 94.3458 29.424 94.3458 28.735C94.3458 28.046 97.3358 27.396 97.5958 27.396C97.8818 27.396 98.0638 27.643 98.0638 27.903C98.0638 27.981 98.0508 28.059 98.0508 28.137C98.0508 28.293 98.1158 28.475 98.3108 28.475C98.5188 28.475 98.6358 28.202 98.8958 27.929C99.1558 27.669 99.5458 27.396 100.287 27.396C102.978 27.396 102.523 30.035 102.653 32.011C102.718 33.038 103.251 32.804 103.251 33.363C103.251 33.597 103.303 34.143 100.859 34.143C100.391 34.143 99.1428 34.169 99.1428 33.441C99.1428 32.973 99.5718 33.194 99.6368 32.349C99.7018 31.426 100.066 29.346 98.8438 29.346C98.0118 29.346 98.0898 30.243 98.0898 30.828ZM107.347 27.968V31.595C107.347 33.129 108.114 32.57 108.114 33.259C108.114 34.143 106.463 34.143 105.878 34.143C103.642 34.143 103.551 33.636 103.551 33.324C103.551 32.856 104.084 32.83 104.24 32.427C104.409 31.972 104.435 30.087 104.292 29.606C104.175 29.151 103.512 29.294 103.512 28.709C103.512 27.786 106.814 27.396 106.944 27.396C107.334 27.396 107.347 27.695 107.347 27.968ZM107.282 25.706C107.282 26.72 105.514 26.98 104.773 26.98C104.227 26.98 103.642 26.733 103.642 26.096C103.642 25.238 105.358 24.887 106.021 24.887C106.541 24.887 107.282 25.056 107.282 25.706ZM112.131 30.828V31.829C112.131 33.09 112.573 32.869 112.573 33.363C112.573 34.169 110.844 34.143 110.311 34.143C109.791 34.143 108.465 34.143 108.465 33.363C108.465 32.739 109.063 33.298 109.102 32.024L109.154 30.074C109.18 29.112 108.387 29.424 108.387 28.735C108.387 28.046 111.377 27.396 111.637 27.396C111.923 27.396 112.105 27.643 112.105 27.903C112.105 27.981 112.092 28.059 112.092 28.137C112.092 28.293 112.157 28.475 112.352 28.475C112.56 28.475 112.677 28.202 112.937 27.929C113.197 27.669 113.587 27.396 114.328 27.396C117.019 27.396 116.564 30.035 116.694 32.011C116.759 33.038 117.292 32.804 117.292 33.363C117.292 33.597 117.344 34.143 114.9 34.143C114.432 34.143 113.184 34.169 113.184 33.441C113.184 32.973 113.613 33.194 113.678 32.349C113.743 31.426 114.107 29.346 112.885 29.346C112.053 29.346 112.131 30.243 112.131 30.828ZM121.973 29.879C121.973 29.346 121.856 28.384 121.128 28.384C120.621 28.384 120.4 28.865 120.4 29.32C120.4 29.814 120.53 30.893 121.193 30.893C121.778 30.893 121.973 30.386 121.973 29.879ZM119.529 34.65C119.529 35.339 120.543 35.521 121.05 35.521C121.479 35.521 122.454 35.456 122.454 34.858C122.454 34.585 122.194 34.468 121.947 34.468C121.752 34.468 121.245 34.546 120.829 34.546C120.53 34.546 119.828 34.442 119.685 34.442C119.568 34.442 119.529 34.559 119.529 34.65ZM125.223 33.896C125.223 35.066 124.105 36.639 120.92 36.639C118.515 36.639 117.605 35.729 117.605 34.897C117.605 34.143 118.32 34.13 118.32 33.935C118.32 33.766 117.618 33.402 117.618 32.83C117.618 31.907 118.671 31.634 118.671 31.452C118.671 31.296 117.787 30.698 117.787 29.736C117.787 28.163 119.75 27.435 121.063 27.435C121.726 27.435 122.623 27.682 123.078 27.682C124.066 27.682 124.56 26.993 124.755 26.993C125.054 26.993 125.184 27.383 125.184 27.63C125.184 28.358 124.456 28.878 124.456 29.021C124.456 29.151 124.495 29.294 124.495 29.424C124.495 31.179 122.454 31.777 121.024 31.777C120.803 31.777 120.582 31.738 120.348 31.738C120.127 31.738 119.997 31.881 119.997 32.089C119.997 32.492 120.569 32.57 120.868 32.57C121.271 32.57 122.779 32.349 123.299 32.349C124.651 32.349 125.223 33.116 125.223 33.896ZM133.099 28.644C133.099 31.322 134.659 32.284 135.491 32.284C135.946 32.284 136.284 31.946 136.284 31.478C136.284 30.399 134.919 31.452 134.919 30.256C134.919 29.307 136.882 29.242 137.545 29.242C139.989 29.242 140.132 29.931 140.132 30.308C140.132 30.646 139.846 30.88 139.534 30.932C139.196 30.971 139.17 31.036 139.079 31.374C138.572 33.272 136.739 34.182 134.893 34.182C132.137 34.182 129.732 32.271 129.732 29.398C129.732 26.655 132.059 24.705 134.841 24.705C135.985 24.705 136.609 25.056 136.947 25.056C137.181 25.056 137.519 24.861 137.753 24.861C138.559 24.861 139.04 26.187 139.04 26.85C139.04 27.487 138.715 28.137 138.013 28.137C136.726 28.137 136.726 26.33 134.958 26.33C133.827 26.33 133.099 27.266 133.099 28.644ZM146.814 30.789L146.047 32.908C145.41 34.637 144.578 36.327 142.459 36.327C141.523 36.327 140.418 35.846 140.418 34.767C140.418 34.117 140.912 33.571 141.575 33.571C142.784 33.571 142.446 34.949 142.979 34.949C143.33 34.949 143.486 34.611 143.486 34.312C143.486 33.948 143.226 33.454 143.07 33.129L141.25 29.32C141.003 28.8 140.262 28.956 140.262 28.358C140.262 27.968 140.496 27.396 143.239 27.396C143.733 27.396 144.903 27.448 144.903 28.189C144.903 28.54 144.604 28.644 144.604 28.956C144.604 29.45 145.176 30.36 145.397 30.36C145.787 30.36 146.06 29.463 146.06 29.151C146.06 28.566 145.644 28.605 145.644 28.163C145.644 27.474 146.866 27.396 147.334 27.396C147.763 27.396 148.725 27.461 148.725 28.059C148.725 28.826 147.945 28.488 147.49 29.255C147.204 29.71 146.996 30.282 146.814 30.789ZM149.639 31.569V30.373C149.639 29.541 149.47 29.307 149.34 29.19C149.171 29.047 148.989 29.06 148.989 28.722C148.989 27.76 152.213 27.396 152.239 27.396C152.564 27.396 152.59 27.682 152.59 27.955C152.59 28.111 152.538 28.553 152.811 28.553C152.941 28.553 153.149 28.267 153.513 27.968C153.877 27.682 154.397 27.396 155.164 27.396C156.711 27.396 156.724 28.553 156.997 28.553C157.101 28.553 157.335 28.267 157.712 27.968C158.102 27.682 158.622 27.396 159.285 27.396C160.52 27.396 161.287 28.072 161.287 29.346V32.089C161.287 32.843 161.768 32.908 161.768 33.285C161.768 34.104 160.286 34.143 159.779 34.143C159.35 34.143 157.842 34.052 157.842 33.376C157.842 32.895 158.297 32.908 158.297 32.154V30.984C158.297 30.438 158.362 29.346 157.621 29.346C156.893 29.346 156.958 30.23 156.958 30.711V31.517C156.958 33.116 157.426 32.843 157.426 33.324C157.426 34.13 155.866 34.143 155.398 34.143C153.435 34.143 153.331 33.779 153.344 33.415C153.357 32.726 154.007 33.272 153.968 31.725V30.984C153.968 30.516 154.033 29.346 153.292 29.346C152.564 29.346 152.629 30.23 152.629 30.711V31.764C152.629 32.96 152.98 32.882 152.98 33.35C152.98 33.688 152.681 34.143 150.9 34.143C150.393 34.143 148.859 34.156 148.859 33.467C148.859 32.882 149.639 33.194 149.639 31.569Z" fill="#0074BC"/>
</svg>
