<svg width="244" height="56" viewBox="0 0 244 56" fill="none" xmlns="http://www.w3.org/2000/svg">
<path d="M44.3544 24.6791L41.9265 19.2372C41.6754 18.693 41.2149 17.4372 40.4614 17.4372C39.1637 17.4372 39.5824 22.9628 39.5824 24.3442C39.5824 28.8233 42.2614 26.7302 42.2614 28.9907C42.2614 31.3767 37.7824 31.4605 36.1498 31.4605C34.6847 31.4605 30.8754 31.3349 30.8754 29.1581C30.8754 26.7721 33.387 28.7395 33.7219 25.307C34.0568 21.7907 34.4335 17.8977 34.4335 11.8279C34.4335 9.31628 34.2661 8.0186 33.8056 7.05581C33.387 6.17674 31.001 5.88372 31.001 4.16744C31.001 1.78139 34.894 1.19535 38.2428 1.19535C43.1405 1.19535 43.0568 2.03256 44.3126 4.16744C45.7777 6.63721 48.3731 13.5023 50.2149 13.9209C51.5126 14.214 53.2289 9.14884 54.7358 6.38605C56.8707 2.45116 56.9126 1.19535 62.4382 1.19535C64.28 1.19535 68.4661 1.32093 68.4661 3.95814C68.4661 5.63256 66.5824 5.96744 66.1638 7.3907C65.8289 8.56279 65.5358 13.5023 65.5358 15.386C65.5358 16.014 65.787 20.6186 65.9544 24.5116C66.08 27.5674 68.5917 26.8977 68.5917 28.7814C68.5917 31.586 62.8568 31.4605 61.0149 31.4605C59.2986 31.4605 53.5638 31.6279 53.5638 28.9488C53.5638 27.4837 55.4475 27.2326 55.7405 25.893C55.9079 25.1814 56.7451 17.9814 55.28 17.9814C53.9824 17.9814 52.6428 21.6651 51.6382 23.8C50.7172 25.7256 49.2103 30.4977 47.8707 30.3302C47.201 30.2465 46.8661 30.3302 44.3544 24.6791ZM85.8679 31.586C77.0354 31.586 70.1703 25.1395 70.1703 16.2233C70.1703 7.34884 77.2447 1.06977 86.3703 1.06977C97.9237 1.06977 102.361 11.2419 102.361 16.6419C102.361 25.6419 94.4075 31.586 85.8679 31.586ZM91.6028 20.8698C91.6028 17.0605 89.3423 7.30697 84.4447 7.30697C82.1005 7.30697 80.9284 9.73488 80.9284 11.786C80.9284 15.3442 83.44 25.3488 87.961 25.3488C90.5144 25.3488 91.6028 23.1302 91.6028 20.8698ZM117.613 18.9023H120.753C121.171 18.9023 122.427 18.986 122.427 18.3581C122.427 17.7302 121.213 15.5535 120.878 14.9674C120.502 14.2977 119.79 12.7488 118.869 12.7488C117.864 12.7488 117.153 15.2605 116.985 15.7209C116.818 16.1814 116.106 17.814 116.106 18.3163C116.106 19.0279 117.153 18.9023 117.613 18.9023ZM109.325 21.6233L111.962 15.8884C113.26 13 114.976 9.31628 114.976 6.0093C114.976 3.12093 116.316 0.944183 120.041 0.944183C123.683 0.944183 125.985 4.66977 127.618 7.43256C128.329 8.64651 134.65 21.4558 136.157 24.8884C137.539 28.0698 139.799 26.1442 139.799 28.5302C139.799 31.586 133.855 31.4605 131.762 31.4605C125.776 31.4605 122.176 31.4186 122.176 28.8233C122.176 26.814 124.729 27.5674 124.729 26.1023C124.729 24.2186 123.683 24.0512 116.943 24.0512C114.767 24.0512 113.469 24.1349 113.469 26.186C113.469 27.8186 116.148 26.7302 116.148 28.907C116.148 31.4186 111.627 31.4605 109.953 31.4605C103.967 31.4605 103.423 30.3302 103.423 28.9907C103.423 27.0233 105.683 27.6093 106.897 26.1023C107.818 24.9721 108.697 22.9628 109.325 21.6233ZM152.866 3.03721L162.787 11.7442C163.289 12.1628 164.628 13.3767 165.382 13.3767C166.428 13.3767 166.47 11.6605 166.47 10.9488C166.47 9.90232 166.428 8.10232 166.094 7.13953C165.507 5.38139 163.289 6.0093 163.289 3.74884C163.289 1.06977 167.559 1.19535 169.317 1.19535C171.159 1.19535 175.721 0.986046 175.721 3.87442C175.721 6.26046 173.503 5.38139 172.791 7.30697C172.247 8.81395 172.247 11.4093 172.247 13V23.8419C172.247 25.7256 172.498 31.4605 169.694 31.4605C168.856 31.4605 168.145 30.9581 167.517 30.414L154.582 18.8186C153.996 18.2744 152.907 17.2698 152.028 17.2698C150.731 17.2698 150.689 19.9907 150.689 20.8698C150.689 22.0419 150.731 23.5907 150.982 24.6791C151.61 27.3581 153.828 26.3535 153.828 28.4047C153.828 31.2093 149.517 31.4605 147.549 31.4605C145.624 31.4605 141.312 31.2093 141.312 28.4884C141.312 26.2698 143.74 27.1488 144.159 24.4698C144.452 22.6698 144.535 20.0326 144.535 18.1488C144.535 15.1349 144.535 12.0791 144.075 9.06511C143.405 4.87907 140.391 6.51163 140.391 4C140.391 1.02791 146.042 1.19535 147.926 1.19535C150.521 1.19535 150.982 1.36279 152.866 3.03721ZM190.542 18.9023H193.682C194.1 18.9023 195.356 18.986 195.356 18.3581C195.356 17.7302 194.142 15.5535 193.807 14.9674C193.43 14.2977 192.719 12.7488 191.798 12.7488C190.793 12.7488 190.082 15.2605 189.914 15.7209C189.747 16.1814 189.035 17.814 189.035 18.3163C189.035 19.0279 190.082 18.9023 190.542 18.9023ZM182.254 21.6233L184.891 15.8884C186.188 13 187.905 9.31628 187.905 6.0093C187.905 3.12093 189.244 0.944183 192.97 0.944183C196.612 0.944183 198.914 4.66977 200.547 7.43256C201.258 8.64651 207.579 21.4558 209.086 24.8884C210.468 28.0698 212.728 26.1442 212.728 28.5302C212.728 31.586 206.784 31.4605 204.691 31.4605C198.705 31.4605 195.105 31.4186 195.105 28.8233C195.105 26.814 197.658 27.5674 197.658 26.1023C197.658 24.2186 196.612 24.0512 189.872 24.0512C187.695 24.0512 186.398 24.1349 186.398 26.186C186.398 27.8186 189.077 26.7302 189.077 28.907C189.077 31.4186 184.556 31.4605 182.882 31.4605C176.895 31.4605 176.351 30.3302 176.351 28.9907C176.351 27.0233 178.612 27.6093 179.826 26.1023C180.747 24.9721 181.626 22.9628 182.254 21.6233Z" fill="white"/>
<path d="M8.81861 43.1721C8.81861 42 8.22326 41.0326 6.97675 41.0326C6.25116 41.0326 6.26977 41.2558 6.26977 41.6279V44.4186C6.26977 44.8093 6.10233 45.2372 7.10698 45.2372C8.33488 45.2372 8.81861 44.307 8.81861 43.1721ZM1.9907 49.2V41.9256C1.9907 40.5302 0.260465 41.1442 0.260465 39.9721C0.260465 39.2279 1.07907 39.0605 1.65581 39.0605C2.12093 39.0605 2.56744 39.0977 3.03256 39.0977C5.73023 39.0977 7.36744 38.8372 8.14884 38.8372C10.6791 38.8372 13.1163 40.307 13.1163 43.0977C13.1163 45.8698 10.7721 47.3581 8.18605 47.3581C7.62791 47.3581 7.06977 47.2651 6.56744 47.2651C6.34419 47.2651 6.26977 47.3581 6.26977 47.5628V48.6419C6.32558 50.9674 7.68372 50 7.68372 51.0791C7.68372 52.2884 5.00465 52.3442 4.16744 52.3442C3.38605 52.3442 0.632558 52.3256 0.632558 51.1163C0.632558 50.093 1.9907 50.7256 1.9907 49.2ZM22.8791 47.8605H18.8419C18.6372 47.8605 18.3395 47.8046 18.3395 48.1209C18.3395 49.0512 19.5488 49.8326 20.4233 49.8326C21.8186 49.8326 22.507 48.9953 22.8977 48.9953C23.2884 48.9953 23.6233 49.5721 23.6233 49.9256C23.6233 51.3581 21 52.4 19.3256 52.4C15.9767 52.4 14.2465 49.9814 14.2465 47.5814C14.2465 44.7163 16.6837 42.6326 19.4744 42.6326C22.6372 42.6326 24.0326 45.0698 24.0326 46.4651C24.0326 47.693 23.4744 47.8605 22.8791 47.8605ZM19.3628 46.0744C19.8651 46.0744 20.4605 46.186 20.4605 45.5163C20.4605 44.8465 20.0512 44.3256 19.3628 44.3256C18.7488 44.3256 18.2465 44.9581 18.2465 45.5535C18.2465 46.2233 18.8791 46.0744 19.3628 46.0744ZM26.2956 47.6186V46.5023C26.2956 44.6791 25.1422 45.7023 25.1422 44.5674C25.1422 43.0977 29.4956 42.6884 29.6631 42.6884C30.3701 42.6884 30.3887 42.8744 30.4631 43.507C30.4817 43.7302 30.4631 44.1581 30.7794 44.1581C31.2259 44.1581 31.5049 42.6884 33.1049 42.6884C34.3515 42.6884 35.1701 43.6186 35.1701 44.8465C35.1701 46.093 34.1096 47.0791 32.8817 47.0791C31.6724 47.0791 31.3375 46.0186 30.8538 46.0186C30.3329 46.0186 30.4259 47.2651 30.4259 47.6C30.4259 48.1581 30.4817 48.9395 30.5747 49.6465C30.6863 50.4651 32.1003 49.9628 32.1003 51.0791C32.1003 52.2512 30.4631 52.3442 28.4166 52.3442C27.5608 52.3442 25.0305 52.3814 25.0305 51.0977C25.0305 50.3163 25.8863 50.3163 26.091 49.6651C26.2398 49.2 26.2956 48.1395 26.2956 47.6186ZM40.11 42.6326C40.4821 42.6326 40.8728 42.6698 41.2263 42.7442C41.5612 42.8 41.8589 42.8744 41.9891 42.8744C42.1751 42.8744 42.324 42.8186 42.4914 42.7442C42.6589 42.6884 42.8263 42.6326 42.9938 42.6326C43.8496 42.6326 44.7054 44.3442 44.7054 45.107C44.7054 45.6093 44.2775 45.9814 43.7938 45.9814C42.7333 45.9814 42.1379 44.5116 41.3193 44.5116C40.9845 44.5116 40.6496 44.7907 40.6496 45.1442C40.6496 46.3349 44.7426 46.5581 44.7426 49.4419C44.7426 51.1907 43.0496 52.4 41.1147 52.4C40.7426 52.4 40.2031 52.3442 39.7379 52.2698C39.2728 52.214 38.8635 52.1581 38.7519 52.1581C38.6217 52.1581 38.51 52.1767 38.3798 52.1953C38.2682 52.214 38.1565 52.2326 38.0263 52.2326C37.6542 52.2326 37.4682 52.1767 37.2077 51.8791C36.7426 51.3581 36.2775 50.2977 36.2775 49.5907C36.2775 49.107 36.4449 48.7163 36.9845 48.7163C37.8031 48.7163 38.5472 50.5581 39.5891 50.5581C39.9612 50.5581 40.3147 50.3721 40.3147 49.9628C40.3147 48.8651 36.6682 48.7349 36.6682 45.6651C36.6682 43.8046 38.1938 42.6326 40.11 42.6326ZM51.1608 52.4C48.4073 52.4 46.0631 50.7814 46.0631 47.8419C46.0631 44.5116 48.984 42.6326 52.0538 42.6326C55.3096 42.6326 57.1701 45.1814 57.1701 47.4884C57.1701 50.5395 53.8956 52.4 51.1608 52.4ZM52.891 48.9023C52.891 48.0651 52.5189 44.8279 51.2538 44.8279C50.6398 44.8279 50.3049 45.4046 50.3422 45.9442C50.4166 47.1163 50.7515 49.9814 52.0352 50.0558C52.7422 50.093 52.891 49.4977 52.891 48.9023ZM63.6038 47.6V49.0326C63.6038 50.8372 64.2363 50.5209 64.2363 51.2279C64.2363 52.3814 61.7619 52.3442 60.9991 52.3442C60.2549 52.3442 58.3573 52.3442 58.3573 51.2279C58.3573 50.3349 59.2131 51.1349 59.2689 49.3116L59.3433 46.5209C59.3805 45.1442 58.2456 45.5907 58.2456 44.6046C58.2456 43.6186 62.5247 42.6884 62.8968 42.6884C63.3061 42.6884 63.5666 43.0419 63.5666 43.414C63.5666 43.5256 63.548 43.6372 63.548 43.7488C63.548 43.9721 63.641 44.2326 63.9201 44.2326C64.2177 44.2326 64.3852 43.8419 64.7573 43.4512C65.1294 43.0791 65.6875 42.6884 66.748 42.6884C70.5991 42.6884 69.948 46.4651 70.134 49.293C70.227 50.7628 70.9898 50.4279 70.9898 51.2279C70.9898 51.5628 71.0643 52.3442 67.5666 52.3442C66.8968 52.3442 65.1108 52.3814 65.1108 51.3395C65.1108 50.6698 65.7247 50.986 65.8177 49.7767C65.9108 48.4558 66.4317 45.4791 64.6829 45.4791C63.4922 45.4791 63.6038 46.7628 63.6038 47.6ZM76.9262 48.1395C76.2936 48.1395 75.8657 48.7349 75.8657 49.3302C75.8657 49.814 76.1262 50.3349 76.6657 50.3349C77.3727 50.3349 77.4285 49.5721 77.4285 49.014C77.4285 48.6046 77.4471 48.1395 76.9262 48.1395ZM81.4471 45.8326V47.693C81.4471 50.9674 82.5634 49.1814 82.5634 50.186C82.5634 51.2465 81.1122 52.4 79.7541 52.4C78.2843 52.4 78.2471 51.4512 77.782 51.4512C77.5587 51.4512 77.3169 51.693 76.9076 51.9163C76.4983 52.1581 75.9401 52.4 75.0843 52.4C73.5401 52.4 71.9959 51.5814 71.9959 49.7395C71.9959 48.4186 73.261 46.7814 76.5355 46.7814C77.1122 46.7814 77.3727 46.8186 77.3727 46.1488C77.3727 45.5349 77.3541 44.2512 76.4983 44.2512C75.382 44.2512 75.2704 46.2605 73.6145 46.2605C73.0192 46.2605 72.5727 45.8326 72.5727 45.2372C72.5727 43.6558 75.7169 42.6326 77.4843 42.6326C78.5448 42.6326 81.4471 43.0419 81.4471 45.8326ZM89.1997 45.2V48.8093C89.1997 49.1442 89.1811 49.7581 89.2741 50.0558C89.4788 50.7256 90.316 50.4093 90.316 51.1907C90.316 52.4372 88.0462 52.3442 87.2462 52.3442C86.409 52.3442 83.8044 52.4372 83.8044 51.1163C83.8044 50.4651 84.6044 50.707 84.8276 50.0186C85.0695 49.2558 85.0695 46.9302 85.0695 46.0186C85.0695 45.293 85.1067 43.8977 84.9392 43.0605C84.6602 41.6837 83.5625 42.1674 83.5625 41.107C83.5625 39.4884 88.3997 39.0977 88.6602 39.0977C89.2927 39.0977 89.4416 39.507 89.4416 40.0651C89.4416 40.493 89.1997 42.5395 89.1997 45.2ZM102.19 39.0977H106.767C107.567 39.0977 107.939 39.0233 108.218 38.9674C108.478 38.893 108.627 38.8372 108.981 38.8372C109.706 38.8372 111.213 40.2698 111.213 42.2791C111.213 43.2093 110.729 43.8233 109.781 43.8233C108.162 43.8233 108.181 41.6279 107.232 41.6279C106.506 41.6279 106.581 42.6326 106.581 42.7814V48.493C106.581 50.707 108.292 49.6465 108.292 50.9488C108.292 51.5256 107.939 52.3442 104.46 52.3442C103.511 52.3442 100.032 52.3814 100.032 50.9488C100.032 49.9628 101.185 50.3535 101.557 49.6465C101.743 49.2558 101.818 48.1395 101.836 47.6744L101.985 43.5628C102.06 41.6093 101.669 41.6279 101.408 41.6279C100.571 41.6279 100.162 43.8233 98.6549 43.8233C97.9294 43.8233 97.5015 43.1535 97.5015 42.4837C97.5015 40.9023 98.841 38.8372 99.9015 38.8372C100.032 38.8372 100.236 38.893 100.59 38.9674C100.943 39.0233 101.446 39.0977 102.19 39.0977ZM113.228 47.6186V46.5023C113.228 44.6791 112.075 45.7023 112.075 44.5674C112.075 43.0977 116.428 42.6884 116.595 42.6884C117.302 42.6884 117.321 42.8744 117.395 43.507C117.414 43.7302 117.395 44.1581 117.712 44.1581C118.158 44.1581 118.437 42.6884 120.037 42.6884C121.284 42.6884 122.102 43.6186 122.102 44.8465C122.102 46.093 121.042 47.0791 119.814 47.0791C118.605 47.0791 118.27 46.0186 117.786 46.0186C117.265 46.0186 117.358 47.2651 117.358 47.6C117.358 48.1581 117.414 48.9395 117.507 49.6465C117.619 50.4651 119.033 49.9628 119.033 51.0791C119.033 52.2512 117.395 52.3442 115.349 52.3442C114.493 52.3442 111.963 52.3814 111.963 51.0977C111.963 50.3163 112.819 50.3163 113.023 49.6651C113.172 49.2 113.228 48.1395 113.228 47.6186ZM127.973 48.1395C127.34 48.1395 126.912 48.7349 126.912 49.3302C126.912 49.814 127.173 50.3349 127.712 50.3349C128.419 50.3349 128.475 49.5721 128.475 49.014C128.475 48.6046 128.494 48.1395 127.973 48.1395ZM132.494 45.8326V47.693C132.494 50.9674 133.61 49.1814 133.61 50.186C133.61 51.2465 132.159 52.4 130.801 52.4C129.331 52.4 129.294 51.4512 128.828 51.4512C128.605 51.4512 128.363 51.693 127.954 51.9163C127.545 52.1581 126.987 52.4 126.131 52.4C124.587 52.4 123.042 51.5814 123.042 49.7395C123.042 48.4186 124.308 46.7814 127.582 46.7814C128.159 46.7814 128.419 46.8186 128.419 46.1488C128.419 45.5349 128.401 44.2512 127.545 44.2512C126.428 44.2512 126.317 46.2605 124.661 46.2605C124.066 46.2605 123.619 45.8326 123.619 45.2372C123.619 43.6558 126.763 42.6326 128.531 42.6326C129.591 42.6326 132.494 43.0419 132.494 45.8326ZM140.097 43.507V48.6977C140.097 50.893 141.195 50.093 141.195 51.0791C141.195 52.3442 138.832 52.3442 137.995 52.3442C134.795 52.3442 134.665 51.6186 134.665 51.1721C134.665 50.5023 135.428 50.4651 135.651 49.8884C135.893 49.2372 135.93 46.5395 135.725 45.8512C135.558 45.2 134.609 45.4046 134.609 44.5674C134.609 43.2465 139.335 42.6884 139.521 42.6884C140.079 42.6884 140.097 43.1163 140.097 43.507ZM140.004 40.2698C140.004 41.7209 137.474 42.093 136.414 42.093C135.632 42.093 134.795 41.7395 134.795 40.8279C134.795 39.6 137.251 39.0977 138.2 39.0977C138.944 39.0977 140.004 39.3395 140.004 40.2698ZM147.502 47.6V49.0326C147.502 50.8372 148.135 50.5209 148.135 51.2279C148.135 52.3814 145.66 52.3442 144.897 52.3442C144.153 52.3442 142.256 52.3442 142.256 51.2279C142.256 50.3349 143.111 51.1349 143.167 49.3116L143.242 46.5209C143.279 45.1442 142.144 45.5907 142.144 44.6046C142.144 43.6186 146.423 42.6884 146.795 42.6884C147.204 42.6884 147.465 43.0419 147.465 43.414C147.465 43.5256 147.446 43.6372 147.446 43.7488C147.446 43.9721 147.539 44.2326 147.818 44.2326C148.116 44.2326 148.283 43.8419 148.656 43.4512C149.028 43.0791 149.586 42.6884 150.646 42.6884C154.497 42.6884 153.846 46.4651 154.032 49.293C154.125 50.7628 154.888 50.4279 154.888 51.2279C154.888 51.5628 154.963 52.3442 151.465 52.3442C150.795 52.3442 149.009 52.3814 149.009 51.3395C149.009 50.6698 149.623 50.986 149.716 49.7767C149.809 48.4558 150.33 45.4791 148.581 45.4791C147.39 45.4791 147.502 46.7628 147.502 47.6ZM161.308 43.507V48.6977C161.308 50.893 162.406 50.093 162.406 51.0791C162.406 52.3442 160.043 52.3442 159.206 52.3442C156.006 52.3442 155.876 51.6186 155.876 51.1721C155.876 50.5023 156.638 50.4651 156.862 49.8884C157.103 49.2372 157.141 46.5395 156.936 45.8512C156.769 45.2 155.82 45.4046 155.82 44.5674C155.82 43.2465 160.545 42.6884 160.731 42.6884C161.29 42.6884 161.308 43.1163 161.308 43.507ZM161.215 40.2698C161.215 41.7209 158.685 42.093 157.624 42.093C156.843 42.093 156.006 41.7395 156.006 40.8279C156.006 39.6 158.462 39.0977 159.41 39.0977C160.155 39.0977 161.215 39.3395 161.215 40.2698ZM168.713 47.6V49.0326C168.713 50.8372 169.345 50.5209 169.345 51.2279C169.345 52.3814 166.871 52.3442 166.108 52.3442C165.364 52.3442 163.466 52.3442 163.466 51.2279C163.466 50.3349 164.322 51.1349 164.378 49.3116L164.452 46.5209C164.49 45.1442 163.355 45.5907 163.355 44.6046C163.355 43.6186 167.634 42.6884 168.006 42.6884C168.415 42.6884 168.676 43.0419 168.676 43.414C168.676 43.5256 168.657 43.6372 168.657 43.7488C168.657 43.9721 168.75 44.2326 169.029 44.2326C169.327 44.2326 169.494 43.8419 169.866 43.4512C170.238 43.0791 170.797 42.6884 171.857 42.6884C175.708 42.6884 175.057 46.4651 175.243 49.293C175.336 50.7628 176.099 50.4279 176.099 51.2279C176.099 51.5628 176.173 52.3442 172.676 52.3442C172.006 52.3442 170.22 52.3814 170.22 51.3395C170.22 50.6698 170.834 50.986 170.927 49.7767C171.02 48.4558 171.541 45.4791 169.792 45.4791C168.601 45.4791 168.713 46.7628 168.713 47.6ZM183.356 46.2419C183.356 45.4791 183.189 44.1023 182.147 44.1023C181.421 44.1023 181.105 44.7907 181.105 45.4419C181.105 46.1488 181.291 47.693 182.24 47.693C183.077 47.693 183.356 46.9674 183.356 46.2419ZM179.858 53.0698C179.858 54.0558 181.31 54.3163 182.035 54.3163C182.649 54.3163 184.044 54.2233 184.044 53.3674C184.044 52.9767 183.672 52.8093 183.319 52.8093C183.04 52.8093 182.314 52.9209 181.719 52.9209C181.291 52.9209 180.286 52.7721 180.082 52.7721C179.914 52.7721 179.858 52.9395 179.858 53.0698ZM188.007 51.9907C188.007 53.6651 186.407 55.9163 181.849 55.9163C178.407 55.9163 177.105 54.614 177.105 53.4233C177.105 52.3442 178.128 52.3256 178.128 52.0465C178.128 51.8047 177.124 51.2837 177.124 50.4651C177.124 49.1442 178.631 48.7535 178.631 48.493C178.631 48.2698 177.365 47.414 177.365 46.0372C177.365 43.786 180.175 42.7442 182.054 42.7442C183.003 42.7442 184.286 43.0977 184.938 43.0977C186.351 43.0977 187.058 42.1116 187.338 42.1116C187.765 42.1116 187.951 42.6698 187.951 43.0233C187.951 44.0651 186.91 44.8093 186.91 45.014C186.91 45.2 186.965 45.4046 186.965 45.5907C186.965 48.1023 184.044 48.9581 181.998 48.9581C181.682 48.9581 181.365 48.9023 181.031 48.9023C180.714 48.9023 180.528 49.107 180.528 49.4047C180.528 49.9814 181.347 50.093 181.775 50.093C182.351 50.093 184.51 49.7767 185.254 49.7767C187.189 49.7767 188.007 50.8744 188.007 51.9907ZM200.395 44.4744C200.395 48.307 202.628 49.6837 203.818 49.6837C204.47 49.6837 204.953 49.2 204.953 48.5302C204.953 46.986 203 48.493 203 46.7814C203 45.4233 205.809 45.3302 206.758 45.3302C210.256 45.3302 210.46 46.3163 210.46 46.8558C210.46 47.3395 210.051 47.6744 209.605 47.7488C209.121 47.8046 209.084 47.8977 208.953 48.3814C208.228 51.0977 205.605 52.4 202.963 52.4C199.018 52.4 195.577 49.6651 195.577 45.5535C195.577 41.6279 198.907 38.8372 202.888 38.8372C204.525 38.8372 205.418 39.3395 205.902 39.3395C206.237 39.3395 206.721 39.0605 207.056 39.0605C208.209 39.0605 208.898 40.9581 208.898 41.907C208.898 42.8186 208.432 43.7488 207.428 43.7488C205.586 43.7488 205.586 41.1628 203.056 41.1628C201.437 41.1628 200.395 42.5023 200.395 44.4744ZM220.581 47.5442L219.483 50.5767C218.572 53.0512 217.381 55.4698 214.348 55.4698C213.009 55.4698 211.427 54.7814 211.427 53.2372C211.427 52.307 212.134 51.5256 213.083 51.5256C214.814 51.5256 214.33 53.4977 215.093 53.4977C215.595 53.4977 215.818 53.014 215.818 52.586C215.818 52.0651 215.446 51.3581 215.223 50.893L212.618 45.4419C212.265 44.6977 211.204 44.9209 211.204 44.0651C211.204 43.507 211.539 42.6884 215.465 42.6884C216.172 42.6884 217.846 42.7628 217.846 43.8233C217.846 44.3256 217.418 44.4744 217.418 44.9209C217.418 45.6279 218.237 46.9302 218.553 46.9302C219.111 46.9302 219.502 45.6465 219.502 45.2C219.502 44.3628 218.907 44.4186 218.907 43.786C218.907 42.8 220.655 42.6884 221.325 42.6884C221.939 42.6884 223.316 42.7814 223.316 43.6372C223.316 44.7349 222.2 44.2512 221.548 45.3488C221.139 46 220.841 46.8186 220.581 47.5442ZM225.183 48.6605V46.9488C225.183 45.7581 224.941 45.4233 224.755 45.2558C224.513 45.0512 224.253 45.0698 224.253 44.586C224.253 43.2093 228.867 42.6884 228.904 42.6884C229.369 42.6884 229.406 43.0977 229.406 43.4884C229.406 43.7116 229.332 44.3442 229.723 44.3442C229.909 44.3442 230.206 43.9349 230.727 43.507C231.248 43.0977 231.992 42.6884 233.09 42.6884C235.304 42.6884 235.323 44.3442 235.713 44.3442C235.862 44.3442 236.197 43.9349 236.737 43.507C237.295 43.0977 238.039 42.6884 238.988 42.6884C240.755 42.6884 241.853 43.6558 241.853 45.4791V49.4047C241.853 50.4837 242.541 50.5767 242.541 51.1163C242.541 52.2884 240.42 52.3442 239.695 52.3442C239.081 52.3442 236.923 52.214 236.923 51.2465C236.923 50.5581 237.574 50.5767 237.574 49.4977V47.8233C237.574 47.0419 237.667 45.4791 236.606 45.4791C235.565 45.4791 235.658 46.7442 235.658 47.4326V48.586C235.658 50.8744 236.327 50.4837 236.327 51.1721C236.327 52.3256 234.095 52.3442 233.425 52.3442C230.616 52.3442 230.467 51.8233 230.485 51.3023C230.504 50.3163 231.434 51.0977 231.379 48.8837V47.8233C231.379 47.1535 231.472 45.4791 230.411 45.4791C229.369 45.4791 229.462 46.7442 229.462 47.4326V48.9395C229.462 50.6512 229.965 50.5395 229.965 51.2093C229.965 51.693 229.537 52.3442 226.988 52.3442C226.262 52.3442 224.067 52.3628 224.067 51.3767C224.067 50.5395 225.183 50.986 225.183 48.6605Z" fill="white"/>
</svg>
